<svg width="17" height="18" viewBox="0 0 17 18" fill="none" xmlns="http://www.w3.org/2000/svg">
<path fill-rule="evenodd" clip-rule="evenodd" d="M4.21354 6.29011C4.21354 5.31908 5.00072 4.5319 5.97175 4.5319C6.94279 4.5319 7.72997 5.31908 7.72997 6.29011C7.72997 7.26115 6.94279 8.04833 5.97175 8.04833C5.00072 8.04833 4.21354 7.26115 4.21354 6.29011ZM5.97175 5.93847C5.77755 5.93847 5.62011 6.0959 5.62011 6.29011C5.62011 6.48432 5.77755 6.64176 5.97175 6.64176C6.16596 6.64176 6.3234 6.48432 6.3234 6.29011C6.3234 6.0959 6.16596 5.93847 5.97175 5.93847Z" fill="#8599AD"/>
<path fill-rule="evenodd" clip-rule="evenodd" d="M1.40039 3.82861C1.40039 2.66337 2.34501 1.71875 3.51025 1.71875H13.3563C14.5215 1.71875 15.4661 2.66337 15.4661 3.82861V13.6746C15.4661 14.8399 14.5215 15.7845 13.3563 15.7845H3.51025C2.34501 15.7845 1.40039 14.8399 1.40039 13.6746V3.82861ZM3.51025 3.12532C3.12184 3.12532 2.80696 3.4402 2.80696 3.82861V13.6746C2.80696 13.9762 2.9968 14.2335 3.2635 14.3334L10.7492 6.84774C11.0238 6.57309 11.4691 6.57309 11.7438 6.84774L14.0595 9.16354V3.82861C14.0595 3.4402 13.7447 3.12532 13.3563 3.12532H3.51025ZM14.0595 11.1527L11.2465 8.33964L5.20819 14.3779H13.3563C13.7447 14.3779 14.0595 14.063 14.0595 13.6746V11.1527Z" fill="#8599AD"/>
</svg>
