<svg width="17" height="17" viewBox="0 0 17 17" fill="none" xmlns="http://www.w3.org/2000/svg">
<path d="M7.08306 12.4311L5.8293 13.6494C5.50055 13.9782 5.05466 14.1629 4.58972 14.1629C4.12479 14.1629 3.6789 13.9782 3.35014 13.6494C3.02138 13.3207 2.83669 12.8748 2.83669 12.4099C2.83669 11.9449 3.02138 11.499 3.35014 11.1703L6.56597 7.94736C6.88161 7.6307 7.3069 7.44748 7.75386 7.43561C8.20081 7.42375 8.63522 7.58414 8.96722 7.88361L9.05222 7.95445C9.18654 8.08595 9.3676 8.15871 9.55557 8.15672C9.74353 8.15472 9.92301 8.07814 10.0545 7.94382C10.186 7.8095 10.2588 7.62844 10.2568 7.44048C10.2548 7.25251 10.1782 7.07303 10.0439 6.94153C10.0039 6.88984 9.96136 6.84019 9.91639 6.79278C9.31172 6.26671 8.52971 5.99013 7.72875 6.01906C6.92779 6.048 6.16777 6.38029 5.60264 6.94861L2.3443 10.1715C1.79064 10.7742 1.4912 11.5674 1.50852 12.3856C1.52585 13.2038 1.85859 13.9837 2.43726 14.5623C3.01593 15.141 3.7958 15.4737 4.61398 15.4911C5.43216 15.5084 6.22541 15.2089 6.82806 14.6553L8.05347 13.4582C8.17447 13.3262 8.24098 13.1533 8.23963 12.9742C8.23828 12.7952 8.16916 12.6233 8.04618 12.4931C7.92321 12.3629 7.7555 12.2842 7.57681 12.2727C7.39812 12.2612 7.2217 12.3178 7.08306 12.4311ZM14.6551 2.34445C14.0593 1.75229 13.2533 1.41992 12.4133 1.41992C11.5732 1.41992 10.7673 1.75229 10.1714 2.34445L8.94597 3.54153C8.82498 3.67353 8.75846 3.84645 8.75982 4.02551C8.76117 4.20457 8.83029 4.37647 8.95326 4.50662C9.07624 4.63678 9.24394 4.71553 9.42263 4.72703C9.60133 4.73853 9.77774 4.68193 9.91639 4.56861L11.1418 3.35028C11.4706 3.02152 11.9165 2.83683 12.3814 2.83683C12.8463 2.83683 13.2922 3.02152 13.621 3.35028C13.9497 3.67904 14.1344 4.12493 14.1344 4.58986C14.1344 5.0548 13.9497 5.50069 13.621 5.82945L10.4051 9.05236C10.0895 9.36903 9.66421 9.55225 9.21725 9.56412C8.7703 9.57598 8.33589 9.41559 8.00389 9.11611L7.91889 9.04528C7.78457 8.91378 7.60351 8.84102 7.41554 8.84301C7.22758 8.845 7.0481 8.92158 6.9166 9.05591C6.78509 9.19023 6.71234 9.37129 6.71433 9.55925C6.71632 9.74722 6.7929 9.92669 6.92722 10.0582C6.97867 10.1108 7.03307 10.1605 7.09014 10.2069C7.69553 10.7314 8.47722 11.007 9.27768 10.9781C10.0782 10.9491 10.8379 10.6179 11.4039 10.0511L14.6268 6.8282C15.2227 6.23608 15.5602 5.43223 15.5655 4.59216C15.5708 3.75209 15.2436 2.94404 14.6551 2.34445Z" fill="#8599AD"/>
</svg>
