<svg width="100%" height="100%" viewBox="0 0 14 19" fill="none" xmlns="http://www.w3.org/2000/svg">
<path d="M1.99967 18.333C1.54134 18.333 1.14898 18.1698 0.822591 17.8434C0.496202 17.517 0.333008 17.1247 0.333008 16.6663V8.33301C0.333008 7.87467 0.496202 7.48231 0.822591 7.15592C1.14898 6.82954 1.54134 6.66634 1.99967 6.66634H2.83301V4.99967C2.83301 3.8469 3.23926 2.86426 4.05176 2.05176C4.86426 1.23926 5.8469 0.833008 6.99967 0.833008C8.15245 0.833008 9.13509 1.23926 9.94759 2.05176C10.7601 2.86426 11.1663 3.8469 11.1663 4.99967V6.66634H11.9997C12.458 6.66634 12.8504 6.82954 13.1768 7.15592C13.5031 7.48231 13.6663 7.87467 13.6663 8.33301V16.6663C13.6663 17.1247 13.5031 17.517 13.1768 17.8434C12.8504 18.1698 12.458 18.333 11.9997 18.333H1.99967ZM1.99967 16.6663H11.9997V8.33301H1.99967V16.6663ZM6.99967 14.1663C7.45801 14.1663 7.85037 14.0031 8.17676 13.6768C8.50315 13.3504 8.66634 12.958 8.66634 12.4997C8.66634 12.0413 8.50315 11.649 8.17676 11.3226C7.85037 10.9962 7.45801 10.833 6.99967 10.833C6.54134 10.833 6.14898 10.9962 5.82259 11.3226C5.4962 11.649 5.33301 12.0413 5.33301 12.4997C5.33301 12.958 5.4962 13.3504 5.82259 13.6768C6.14898 14.0031 6.54134 14.1663 6.99967 14.1663ZM4.49967 6.66634H9.49967V4.99967C9.49967 4.30523 9.25662 3.71495 8.77051 3.22884C8.2844 2.74273 7.69412 2.49967 6.99967 2.49967C6.30523 2.49967 5.71495 2.74273 5.22884 3.22884C4.74273 3.71495 4.49967 4.30523 4.49967 4.99967V6.66634Z" fill="#8599AD"/>
</svg>
