<svg width="20" height="19" viewBox="0 0 20 19" fill="none" xmlns="http://www.w3.org/2000/svg">
<path d="M18.2972 2.0273C18.3969 2.1285 18.5603 2.12798 18.6594 2.02615L19.153 1.5189C19.4807 1.19125 19.4807 0.732499 19.1623 0.423577L18.9469 0.198896C18.6568 -0.0913327 18.198 -0.0538659 17.8892 0.245709L17.3861 0.741813C17.2865 0.840097 17.2853 1.00055 17.3836 1.10024L18.2972 2.0273ZM7.70359 11.9479L9.52912 11.1521L17.6148 3.07565C17.7144 2.97615 17.7139 2.81454 17.6136 2.71573L16.6922 1.80784C16.593 1.71009 16.4335 1.71068 16.335 1.80916L8.25592 9.88827L7.41336 11.6483C7.33846 11.8074 7.52572 12.0228 7.70359 11.9479ZM3.81846 18.913H14.8091C16.4942 18.913 17.4679 17.9394 17.4679 16.0108V6.20325C17.4679 5.97741 17.1948 5.8643 17.0351 6.024L16.0349 7.02422C15.9873 7.07176 15.9606 7.13624 15.9606 7.20347V15.936C15.9606 16.9095 15.4364 17.4057 14.7904 17.4057H3.84654C2.91038 17.4057 2.38613 16.9095 2.38613 15.936V5.3104C2.38613 4.33678 2.91038 3.83122 3.84654 3.83122H11.8394C11.9067 3.83122 11.9712 3.80451 12.0187 3.75697L13.0189 2.75675C13.1786 2.59706 13.0655 2.324 12.8397 2.324H3.81846C1.87126 2.324 0.878906 3.29762 0.878906 5.22612V16.0108C0.878906 17.9487 1.87126 18.913 3.81846 18.913Z" fill="none"/>
</svg>
