<svg width="100%" height="100%" viewBox="0 0 20 14" fill="none" xmlns="http://www.w3.org/2000/svg">
<path d="M9.99967 10.833C11.0413 10.833 11.9268 10.4684 12.6559 9.73926C13.3851 9.01009 13.7497 8.12467 13.7497 7.08301C13.7497 6.04134 13.3851 5.15592 12.6559 4.42676C11.9268 3.69759 11.0413 3.33301 9.99967 3.33301C8.95801 3.33301 8.07259 3.69759 7.34342 4.42676C6.61426 5.15592 6.24967 6.04134 6.24967 7.08301C6.24967 8.12467 6.61426 9.01009 7.34342 9.73926C8.07259 10.4684 8.95801 10.833 9.99967 10.833ZM9.99967 9.33301C9.37467 9.33301 8.84343 9.11426 8.40593 8.67676C7.96843 8.23926 7.74967 7.70801 7.74967 7.08301C7.74967 6.45801 7.96843 5.92676 8.40593 5.48926C8.84343 5.05176 9.37467 4.83301 9.99967 4.83301C10.6247 4.83301 11.1559 5.05176 11.5934 5.48926C12.0309 5.92676 12.2497 6.45801 12.2497 7.08301C12.2497 7.70801 12.0309 8.23926 11.5934 8.67676C11.1559 9.11426 10.6247 9.33301 9.99967 9.33301ZM9.99967 13.333C7.9719 13.333 6.12467 12.767 4.45801 11.6351C2.79134 10.5031 1.58301 8.98579 0.833008 7.08301C1.58301 5.18023 2.79134 3.66287 4.45801 2.53092C6.12467 1.39898 7.9719 0.833008 9.99967 0.833008C12.0275 0.833008 13.8747 1.39898 15.5413 2.53092C17.208 3.66287 18.4163 5.18023 19.1663 7.08301C18.4163 8.98579 17.208 10.5031 15.5413 11.6351C13.8747 12.767 12.0275 13.333 9.99967 13.333ZM9.99967 11.6663C11.5691 11.6663 13.0101 11.2531 14.3226 10.4268C15.6351 9.60037 16.6386 8.48579 17.333 7.08301C16.6386 5.68023 15.6351 4.56565 14.3226 3.73926C13.0101 2.91287 11.5691 2.49967 9.99967 2.49967C8.43023 2.49967 6.98926 2.91287 5.67676 3.73926C4.36426 4.56565 3.36079 5.68023 2.66634 7.08301C3.36079 8.48579 4.36426 9.60037 5.67676 10.4268C6.98926 11.2531 8.43023 11.6663 9.99967 11.6663Z" fill="#8599AD"/>
</svg>
